solid OpenSCAD_Model
  facet normal 0 0 -1
    outer loop
      vertex -20 0 0
      vertex -19.563 4.15823 0
      vertex -19.563 -4.15823 0
    endloop
  endfacet
  facet normal 0 0 -1
    outer loop
      vertex -19.563 -4.15823 0
      vertex -19.563 4.15823 0
      vertex -18.2709 8.13473 0
    endloop
  endfacet
  facet normal 0 0 -1
    outer loop
      vertex -19.563 -4.15823 0
      vertex -18.2709 8.13473 0
      vertex -16.1803 11.7557 0
    endloop
  endfacet
  facet normal 0 0 -1
    outer loop
      vertex -19.563 -4.15823 0
      vertex -16.1803 11.7557 0
      vertex -13.3826 14.8629 0
    endloop
  endfacet
  facet normal 0 0 -1
    outer loop
      vertex -19.563 -4.15823 0
      vertex -13.3826 14.8629 0
      vertex -10 17.3205 0
    endloop
  endfacet
  facet normal 0 0 -1
    outer loop
      vertex -19.563 -4.15823 0
      vertex -10 17.3205 0
      vertex -6.18034 19.0211 0
    endloop
  endfacet
  facet normal 0 0 -1
    outer loop
      vertex -19.563 -4.15823 0
      vertex -6.18034 19.0211 0
      vertex -2.09057 19.8904 0
    endloop
  endfacet
  facet normal 0 0 -1
    outer loop
      vertex -19.563 -4.15823 0
      vertex -2.09057 19.8904 0
      vertex 2.09057 19.8904 0
    endloop
  endfacet
  facet normal 0 0 -1
    outer loop
      vertex -19.563 -4.15823 0
      vertex 2.09057 19.8904 0
      vertex 6.18034 19.0211 0
    endloop
  endfacet
  facet normal 0 0 -1
    outer loop
      vertex -19.563 -4.15823 0
      vertex 6.18034 19.0211 0
      vertex 10 17.3205 0
    endloop
  endfacet
  facet normal 0 0 -1
    outer loop
      vertex -19.563 -4.15823 0
      vertex 10 17.3205 0
      vertex 13.3826 14.8629 0
    endloop
  endfacet
  facet normal 0 0 -1
    outer loop
      vertex -19.563 -4.15823 0
      vertex 13.3826 14.8629 0
      vertex 16.1803 11.7557 0
    endloop
  endfacet
  facet normal 0 0 -1
    outer loop
      vertex -19.563 -4.15823 0
      vertex 16.1803 11.7557 0
      vertex 18.2709 8.13473 0
    endloop
  endfacet
  facet normal 0 0 -1
    outer loop
      vertex -19.563 -4.15823 0
      vertex 18.2709 8.13473 0
      vertex 19.563 4.15823 0
    endloop
  endfacet
  facet normal 0 0 -1
    outer loop
      vertex -19.563 -4.15823 0
      vertex 19.563 4.15823 0
      vertex 20 0 0
    endloop
  endfacet
  facet normal 0 0 -1
    outer loop
      vertex -19.563 -4.15823 0
      vertex 20 0 0
      vertex 19.563 -4.15823 0
    endloop
  endfacet
  facet normal 0 0 -1
    outer loop
      vertex -19.563 -4.15823 0
      vertex 19.563 -4.15823 0
      vertex 18.2709 -8.13473 0
    endloop
  endfacet
  facet normal 0 0 -1
    outer loop
      vertex -19.563 -4.15823 0
      vertex 18.2709 -8.13473 0
      vertex 16.1803 -11.7557 0
    endloop
  endfacet
  facet normal 0 0 -1
    outer loop
      vertex -19.563 -4.15823 0
      vertex 16.1803 -11.7557 0
      vertex 13.3826 -14.8629 0
    endloop
  endfacet
  facet normal 0 0 -1
    outer loop
      vertex -19.563 -4.15823 0
      vertex 13.3826 -14.8629 0
      vertex 10 -17.3205 0
    endloop
  endfacet
  facet normal 0 0 -1
    outer loop
      vertex -19.563 -4.15823 0
      vertex 10 -17.3205 0
      vertex 6.18034 -19.0211 0
    endloop
  endfacet
  facet normal 0 0 -1
    outer loop
      vertex -19.563 -4.15823 0
      vertex 6.18034 -19.0211 0
      vertex 2.09057 -19.8904 0
    endloop
  endfacet
  facet normal 0 0 -1
    outer loop
      vertex -19.563 -4.15823 0
      vertex 2.09057 -19.8904 0
      vertex -2.09057 -19.8904 0
    endloop
  endfacet
  facet normal 0 0 -1
    outer loop
      vertex -19.563 -4.15823 0
      vertex -2.09057 -19.8904 0
      vertex -6.18034 -19.0211 0
    endloop
  endfacet
  facet normal 0 0 -1
    outer loop
      vertex -19.563 -4.15823 0
      vertex -6.18034 -19.0211 0
      vertex -10 -17.3205 0
    endloop
  endfacet
  facet normal 0 0 -1
    outer loop
      vertex -19.563 -4.15823 0
      vertex -10 -17.3205 0
      vertex -13.3826 -14.8629 0
    endloop
  endfacet
  facet normal 0 0 -1
    outer loop
      vertex -19.563 -4.15823 0
      vertex -13.3826 -14.8629 0
      vertex -16.1803 -11.7557 0
    endloop
  endfacet
  facet normal 0 0 -1
    outer loop
      vertex -19.563 -4.15823 0
      vertex -16.1803 -11.7557 0
      vertex -18.2709 -8.13473 0
    endloop
  endfacet
  facet normal -0.994522 0.104528 0
    outer loop
      vertex -20 0 0
      vertex -20 0 1
      vertex -19.563 4.15823 0
    endloop
  endfacet
  facet normal -0.994522 0.104528 0
    outer loop
      vertex -19.563 4.15823 0
      vertex -20 0 1
      vertex -19.563 4.15823 1
    endloop
  endfacet
  facet normal -0.994522 -0.104528 0
    outer loop
      vertex -20 0 0
      vertex -19.563 -4.15823 0
      vertex -20 0 1
    endloop
  endfacet
  facet normal -0.994522 -0.104528 0
    outer loop
      vertex -20 0 1
      vertex -19.563 -4.15823 0
      vertex -19.563 -4.15823 1
    endloop
  endfacet
  facet normal -0.951057 -0.309017 0
    outer loop
      vertex -19.563 -4.15823 0
      vertex -18.2709 -8.13473 0
      vertex -19.563 -4.15823 1
    endloop
  endfacet
  facet normal -0.951057 -0.309017 0
    outer loop
      vertex -19.563 -4.15823 1
      vertex -18.2709 -8.13473 0
      vertex -18.2709 -8.13473 1
    endloop
  endfacet
  facet normal -0.866025 -0.5 0
    outer loop
      vertex -18.2709 -8.13473 0
      vertex -16.1803 -11.7557 0
      vertex -18.2709 -8.13473 1
    endloop
  endfacet
  facet normal -0.866025 -0.5 0
    outer loop
      vertex -18.2709 -8.13473 1
      vertex -16.1803 -11.7557 0
      vertex -16.1803 -11.7557 1
    endloop
  endfacet
  facet normal -0.743145 -0.669131 0
    outer loop
      vertex -16.1803 -11.7557 0
      vertex -13.3826 -14.8629 0
      vertex -16.1803 -11.7557 1
    endloop
  endfacet
  facet normal -0.743145 -0.669131 0
    outer loop
      vertex -16.1803 -11.7557 1
      vertex -13.3826 -14.8629 0
      vertex -13.3826 -14.8629 1
    endloop
  endfacet
  facet normal -0.587785 -0.809017 0
    outer loop
      vertex -13.3826 -14.8629 1
      vertex -13.3826 -14.8629 0
      vertex -10 -17.3205 0
    endloop
  endfacet
  facet normal -0.587785 -0.809017 0
    outer loop
      vertex -10 -17.3205 1
      vertex -13.3826 -14.8629 1
      vertex -10 -17.3205 0
    endloop
  endfacet
  facet normal -0.406737 -0.913545 0
    outer loop
      vertex -10 -17.3205 1
      vertex -10 -17.3205 0
      vertex -6.18034 -19.0211 0
    endloop
  endfacet
  facet normal -0.406737 -0.913545 0
    outer loop
      vertex -6.18034 -19.0211 1
      vertex -10 -17.3205 1
      vertex -6.18034 -19.0211 0
    endloop
  endfacet
  facet normal -0.207912 -0.978148 0
    outer loop
      vertex -6.18034 -19.0211 1
      vertex -6.18034 -19.0211 0
      vertex -2.09057 -19.8904 0
    endloop
  endfacet
  facet normal -0.207912 -0.978148 0
    outer loop
      vertex -2.09057 -19.8904 1
      vertex -6.18034 -19.0211 1
      vertex -2.09057 -19.8904 0
    endloop
  endfacet
  facet normal 0 -1 0
    outer loop
      vertex -2.09057 -19.8904 1
      vertex -2.09057 -19.8904 0
      vertex 2.09057 -19.8904 0
    endloop
  endfacet
  facet normal 0 -1 0
    outer loop
      vertex 2.09057 -19.8904 1
      vertex -2.09057 -19.8904 1
      vertex 2.09057 -19.8904 0
    endloop
  endfacet
  facet normal 0.207912 -0.978148 0
    outer loop
      vertex 2.09057 -19.8904 1
      vertex 2.09057 -19.8904 0
      vertex 6.18034 -19.0211 0
    endloop
  endfacet
  facet normal 0.207912 -0.978148 0
    outer loop
      vertex 6.18034 -19.0211 1
      vertex 2.09057 -19.8904 1
      vertex 6.18034 -19.0211 0
    endloop
  endfacet
  facet normal 0.406737 -0.913545 0
    outer loop
      vertex 6.18034 -19.0211 1
      vertex 6.18034 -19.0211 0
      vertex 10 -17.3205 0
    endloop
  endfacet
  facet normal 0.406737 -0.913545 0
    outer loop
      vertex 10 -17.3205 1
      vertex 6.18034 -19.0211 1
      vertex 10 -17.3205 0
    endloop
  endfacet
  facet normal 0.587785 -0.809017 0
    outer loop
      vertex 10 -17.3205 1
      vertex 10 -17.3205 0
      vertex 13.3826 -14.8629 0
    endloop
  endfacet
  facet normal 0.587785 -0.809017 0
    outer loop
      vertex 13.3826 -14.8629 1
      vertex 10 -17.3205 1
      vertex 13.3826 -14.8629 0
    endloop
  endfacet
  facet normal 0.743145 -0.669131 0
    outer loop
      vertex 13.3826 -14.8629 1
      vertex 13.3826 -14.8629 0
      vertex 16.1803 -11.7557 0
    endloop
  endfacet
  facet normal 0.743145 -0.669131 0
    outer loop
      vertex 16.1803 -11.7557 1
      vertex 13.3826 -14.8629 1
      vertex 16.1803 -11.7557 0
    endloop
  endfacet
  facet normal 0.866025 -0.5 0
    outer loop
      vertex 16.1803 -11.7557 1
      vertex 16.1803 -11.7557 0
      vertex 18.2709 -8.13473 0
    endloop
  endfacet
  facet normal 0.866025 -0.5 0
    outer loop
      vertex 18.2709 -8.13473 1
      vertex 16.1803 -11.7557 1
      vertex 18.2709 -8.13473 0
    endloop
  endfacet
  facet normal 0.951057 -0.309017 0
    outer loop
      vertex 18.2709 -8.13473 1
      vertex 18.2709 -8.13473 0
      vertex 19.563 -4.15823 0
    endloop
  endfacet
  facet normal 0.951057 -0.309017 0
    outer loop
      vertex 19.563 -4.15823 1
      vertex 18.2709 -8.13473 1
      vertex 19.563 -4.15823 0
    endloop
  endfacet
  facet normal 0.994522 -0.104528 0
    outer loop
      vertex 19.563 -4.15823 1
      vertex 19.563 -4.15823 0
      vertex 20 0 0
    endloop
  endfacet
  facet normal 0.994522 -0.104528 0
    outer loop
      vertex 20 0 1
      vertex 19.563 -4.15823 1
      vertex 20 0 0
    endloop
  endfacet
  facet normal 0.994522 0.104528 0
    outer loop
      vertex 20 0 0
      vertex 19.563 4.15823 0
      vertex 19.563 4.15823 1
    endloop
  endfacet
  facet normal 0.994522 0.104528 0
    outer loop
      vertex 20 0 1
      vertex 20 0 0
      vertex 19.563 4.15823 1
    endloop
  endfacet
  facet normal 0.951057 0.309017 0
    outer loop
      vertex 19.563 4.15823 0
      vertex 18.2709 8.13473 0
      vertex 18.2709 8.13473 1
    endloop
  endfacet
  facet normal 0.951057 0.309017 0
    outer loop
      vertex 19.563 4.15823 1
      vertex 19.563 4.15823 0
      vertex 18.2709 8.13473 1
    endloop
  endfacet
  facet normal 0.866025 0.5 0
    outer loop
      vertex 18.2709 8.13473 0
      vertex 16.1803 11.7557 0
      vertex 16.1803 11.7557 1
    endloop
  endfacet
  facet normal 0.866025 0.5 0
    outer loop
      vertex 18.2709 8.13473 1
      vertex 18.2709 8.13473 0
      vertex 16.1803 11.7557 1
    endloop
  endfacet
  facet normal 0.743145 0.669131 0
    outer loop
      vertex 16.1803 11.7557 0
      vertex 13.3826 14.8629 0
      vertex 13.3826 14.8629 1
    endloop
  endfacet
  facet normal 0.743145 0.669131 0
    outer loop
      vertex 16.1803 11.7557 1
      vertex 16.1803 11.7557 0
      vertex 13.3826 14.8629 1
    endloop
  endfacet
  facet normal 0.587785 0.809017 0
    outer loop
      vertex 10 17.3205 0
      vertex 10 17.3205 1
      vertex 13.3826 14.8629 0
    endloop
  endfacet
  facet normal 0.587785 0.809017 0
    outer loop
      vertex 13.3826 14.8629 0
      vertex 10 17.3205 1
      vertex 13.3826 14.8629 1
    endloop
  endfacet
  facet normal 0.406737 0.913545 0
    outer loop
      vertex 6.18034 19.0211 0
      vertex 6.18034 19.0211 1
      vertex 10 17.3205 0
    endloop
  endfacet
  facet normal 0.406737 0.913545 0
    outer loop
      vertex 10 17.3205 0
      vertex 6.18034 19.0211 1
      vertex 10 17.3205 1
    endloop
  endfacet
  facet normal 0.207912 0.978148 0
    outer loop
      vertex 2.09057 19.8904 0
      vertex 2.09057 19.8904 1
      vertex 6.18034 19.0211 0
    endloop
  endfacet
  facet normal 0.207912 0.978148 0
    outer loop
      vertex 6.18034 19.0211 0
      vertex 2.09057 19.8904 1
      vertex 6.18034 19.0211 1
    endloop
  endfacet
  facet normal 0 1 0
    outer loop
      vertex -2.09057 19.8904 0
      vertex -2.09057 19.8904 1
      vertex 2.09057 19.8904 0
    endloop
  endfacet
  facet normal 0 1 0
    outer loop
      vertex 2.09057 19.8904 0
      vertex -2.09057 19.8904 1
      vertex 2.09057 19.8904 1
    endloop
  endfacet
  facet normal -0.207912 0.978148 0
    outer loop
      vertex -6.18034 19.0211 0
      vertex -6.18034 19.0211 1
      vertex -2.09057 19.8904 0
    endloop
  endfacet
  facet normal -0.207912 0.978148 0
    outer loop
      vertex -2.09057 19.8904 0
      vertex -6.18034 19.0211 1
      vertex -2.09057 19.8904 1
    endloop
  endfacet
  facet normal -0.406737 0.913545 0
    outer loop
      vertex -10 17.3205 0
      vertex -10 17.3205 1
      vertex -6.18034 19.0211 0
    endloop
  endfacet
  facet normal -0.406737 0.913545 0
    outer loop
      vertex -6.18034 19.0211 0
      vertex -10 17.3205 1
      vertex -6.18034 19.0211 1
    endloop
  endfacet
  facet normal -0.587785 0.809017 0
    outer loop
      vertex -13.3826 14.8629 0
      vertex -13.3826 14.8629 1
      vertex -10 17.3205 0
    endloop
  endfacet
  facet normal -0.587785 0.809017 0
    outer loop
      vertex -10 17.3205 0
      vertex -13.3826 14.8629 1
      vertex -10 17.3205 1
    endloop
  endfacet
  facet normal -0.743145 0.669131 0
    outer loop
      vertex -16.1803 11.7557 0
      vertex -16.1803 11.7557 1
      vertex -13.3826 14.8629 0
    endloop
  endfacet
  facet normal -0.743145 0.669131 0
    outer loop
      vertex -13.3826 14.8629 0
      vertex -16.1803 11.7557 1
      vertex -13.3826 14.8629 1
    endloop
  endfacet
  facet normal -0.866025 0.5 0
    outer loop
      vertex -18.2709 8.13473 0
      vertex -18.2709 8.13473 1
      vertex -16.1803 11.7557 0
    endloop
  endfacet
  facet normal -0.866025 0.5 0
    outer loop
      vertex -16.1803 11.7557 0
      vertex -18.2709 8.13473 1
      vertex -16.1803 11.7557 1
    endloop
  endfacet
  facet normal -0.951057 0.309017 0
    outer loop
      vertex -19.563 4.15823 0
      vertex -19.563 4.15823 1
      vertex -18.2709 8.13473 0
    endloop
  endfacet
  facet normal -0.951057 0.309017 0
    outer loop
      vertex -18.2709 8.13473 0
      vertex -19.563 4.15823 1
      vertex -18.2709 8.13473 1
    endloop
  endfacet
  facet normal 0 0 1
    outer loop
      vertex -19.563 4.15823 1
      vertex -20 0 1
      vertex -19.563 -4.15823 1
    endloop
  endfacet
  facet normal 0 0 1
    outer loop
      vertex -16.1803 -11.7557 1
      vertex -19.563 4.15823 1
      vertex -18.2709 -8.13473 1
    endloop
  endfacet
  facet normal 0 0 1
    outer loop
      vertex -18.2709 -8.13473 1
      vertex -19.563 4.15823 1
      vertex -19.563 -4.15823 1
    endloop
  endfacet
  facet normal 0 0 1
    outer loop
      vertex -13.3826 -14.8629 1
      vertex -19.563 4.15823 1
      vertex -16.1803 -11.7557 1
    endloop
  endfacet
  facet normal 0 0 1
    outer loop
      vertex -10 -17.3205 1
      vertex -19.563 4.15823 1
      vertex -13.3826 -14.8629 1
    endloop
  endfacet
  facet normal 0 0 1
    outer loop
      vertex -13.7032 -6.10105 1
      vertex -19.563 4.15823 1
      vertex -10 -17.3205 1
    endloop
  endfacet
  facet normal 0 0 1
    outer loop
      vertex 7.5 12.9904 1
      vertex 10.037 11.1472 1
      vertex 13.3826 14.8629 1
    endloop
  endfacet
  facet normal 0 0 1
    outer loop
      vertex -7.5 12.9904 1
      vertex -4.63525 14.2658 1
      vertex 2.09057 19.8904 1
    endloop
  endfacet
  facet normal 0 0 1
    outer loop
      vertex -1.56793 14.9178 1
      vertex 1.56793 14.9178 1
      vertex 6.18034 19.0211 1
    endloop
  endfacet
  facet normal 0 0 1
    outer loop
      vertex -6.18034 19.0211 1
      vertex -19.563 4.15823 1
      vertex -2.09057 19.8904 1
    endloop
  endfacet
  facet normal 0 0 1
    outer loop
      vertex -10 17.3205 1
      vertex -19.563 4.15823 1
      vertex -6.18034 19.0211 1
    endloop
  endfacet
  facet normal 0 0 1
    outer loop
      vertex -13.3826 14.8629 1
      vertex -19.563 4.15823 1
      vertex -10 17.3205 1
    endloop
  endfacet
  facet normal 0 0 1
    outer loop
      vertex -16.1803 11.7557 1
      vertex -19.563 4.15823 1
      vertex -13.3826 14.8629 1
    endloop
  endfacet
  facet normal 0 0 1
    outer loop
      vertex -18.2709 8.13473 1
      vertex -19.563 4.15823 1
      vertex -16.1803 11.7557 1
    endloop
  endfacet
  facet normal 0 0 1
    outer loop
      vertex 7.5 -12.9904 1
      vertex 4.63525 -14.2658 1
      vertex 10 -17.3205 1
    endloop
  endfacet
  facet normal 0 0 1
    outer loop
      vertex 12.1353 -8.81678 1
      vertex 10.037 -11.1472 1
      vertex 16.1803 -11.7557 1
    endloop
  endfacet
  facet normal 0 0 1
    outer loop
      vertex 10.037 11.1472 1
      vertex 12.1353 8.81678 1
      vertex 16.1803 11.7557 1
    endloop
  endfacet
  facet normal 0 0 1
    outer loop
      vertex 1.56793 14.9178 1
      vertex 4.63525 14.2658 1
      vertex 10 17.3205 1
    endloop
  endfacet
  facet normal 0 0 1
    outer loop
      vertex -2.09057 19.8904 1
      vertex -19.563 4.15823 1
      vertex -10.037 11.1472 1
    endloop
  endfacet
  facet normal 0 0 1
    outer loop
      vertex -2.09057 19.8904 1
      vertex -7.5 12.9904 1
      vertex 2.09057 19.8904 1
    endloop
  endfacet
  facet normal 0 0 1
    outer loop
      vertex -2.09057 19.8904 1
      vertex -10.037 11.1472 1
      vertex -7.5 12.9904 1
    endloop
  endfacet
  facet normal 0 0 1
    outer loop
      vertex 2.09057 19.8904 1
      vertex -4.63525 14.2658 1
      vertex 6.18034 19.0211 1
    endloop
  endfacet
  facet normal 0 0 1
    outer loop
      vertex -4.63525 14.2658 1
      vertex -1.56793 14.9178 1
      vertex 6.18034 19.0211 1
    endloop
  endfacet
  facet normal 0 0 1
    outer loop
      vertex 6.18034 19.0211 1
      vertex 1.56793 14.9178 1
      vertex 10 17.3205 1
    endloop
  endfacet
  facet normal 0 0 1
    outer loop
      vertex -12.1353 8.81678 1
      vertex -10.037 11.1472 1
      vertex -19.563 4.15823 1
    endloop
  endfacet
  facet normal 0 0 1
    outer loop
      vertex 10 17.3205 1
      vertex 4.63525 14.2658 1
      vertex 13.3826 14.8629 1
    endloop
  endfacet
  facet normal 0 0 1
    outer loop
      vertex 4.63525 14.2658 1
      vertex 7.5 12.9904 1
      vertex 13.3826 14.8629 1
    endloop
  endfacet
  facet normal 0 0 1
    outer loop
      vertex 13.3826 14.8629 1
      vertex 10.037 11.1472 1
      vertex 16.1803 11.7557 1
    endloop
  endfacet
  facet normal 0 0 1
    outer loop
      vertex 4.63525 -14.2658 1
      vertex 1.56793 -14.9178 1
      vertex 6.18034 -19.0211 1
    endloop
  endfacet
  facet normal 0 0 1
    outer loop
      vertex 16.1803 11.7557 1
      vertex 12.1353 8.81678 1
      vertex 18.2709 8.13473 1
    endloop
  endfacet
  facet normal 0 0 1
    outer loop
      vertex -13.7032 6.10105 1
      vertex -12.1353 8.81678 1
      vertex -19.563 4.15823 1
    endloop
  endfacet
  facet normal 0 0 1
    outer loop
      vertex 18.2709 8.13473 1
      vertex 13.7032 6.10105 1
      vertex 19.563 4.15823 1
    endloop
  endfacet
  facet normal 0 0 1
    outer loop
      vertex 19.563 4.15823 1
      vertex 14.6722 3.11867 1
      vertex 20 0 1
    endloop
  endfacet
  facet normal 0 0 1
    outer loop
      vertex 20 0 1
      vertex 15 0 1
      vertex 19.563 -4.15823 1
    endloop
  endfacet
  facet normal 0 0 1
    outer loop
      vertex 15 0 1
      vertex 14.6722 -3.11867 1
      vertex 19.563 -4.15823 1
    endloop
  endfacet
  facet normal 0 0 1
    outer loop
      vertex 19.563 -4.15823 1
      vertex 13.7032 -6.10105 1
      vertex 18.2709 -8.13473 1
    endloop
  endfacet
  facet normal 0 0 1
    outer loop
      vertex 18.2709 -8.13473 1
      vertex 12.1353 -8.81678 1
      vertex 16.1803 -11.7557 1
    endloop
  endfacet
  facet normal 0 0 1
    outer loop
      vertex 12.1353 8.81678 1
      vertex 13.7032 6.10105 1
      vertex 18.2709 8.13473 1
    endloop
  endfacet
  facet normal 0 0 1
    outer loop
      vertex 16.1803 -11.7557 1
      vertex 10.037 -11.1472 1
      vertex 13.3826 -14.8629 1
    endloop
  endfacet
  facet normal 0 0 1
    outer loop
      vertex 13.7032 6.10105 1
      vertex 14.6722 3.11867 1
      vertex 19.563 4.15823 1
    endloop
  endfacet
  facet normal 0 0 1
    outer loop
      vertex 13.3826 -14.8629 1
      vertex 7.5 -12.9904 1
      vertex 10 -17.3205 1
    endloop
  endfacet
  facet normal 0 0 1
    outer loop
      vertex 14.6722 3.11867 1
      vertex 15 0 1
      vertex 20 0 1
    endloop
  endfacet
  facet normal 0 0 1
    outer loop
      vertex 10 -17.3205 1
      vertex 4.63525 -14.2658 1
      vertex 6.18034 -19.0211 1
    endloop
  endfacet
  facet normal 0 0 1
    outer loop
      vertex 14.6722 -3.11867 1
      vertex 13.7032 -6.10105 1
      vertex 19.563 -4.15823 1
    endloop
  endfacet
  facet normal 0 0 1
    outer loop
      vertex 6.18034 -19.0211 1
      vertex 1.56793 -14.9178 1
      vertex 2.09057 -19.8904 1
    endloop
  endfacet
  facet normal 0 0 1
    outer loop
      vertex 1.56793 -14.9178 1
      vertex -1.56793 -14.9178 1
      vertex 2.09057 -19.8904 1
    endloop
  endfacet
  facet normal 0 0 1
    outer loop
      vertex 2.09057 -19.8904 1
      vertex -4.63525 -14.2658 1
      vertex -2.09057 -19.8904 1
    endloop
  endfacet
  facet normal 0 0 1
    outer loop
      vertex 10.037 -11.1472 1
      vertex 7.5 -12.9904 1
      vertex 13.3826 -14.8629 1
    endloop
  endfacet
  facet normal 0 0 1
    outer loop
      vertex -2.09057 -19.8904 1
      vertex -7.5 -12.9904 1
      vertex -6.18034 -19.0211 1
    endloop
  endfacet
  facet normal 0 0 1
    outer loop
      vertex -7.5 -12.9904 1
      vertex -10.037 -11.1472 1
      vertex -6.18034 -19.0211 1
    endloop
  endfacet
  facet normal 0 0 1
    outer loop
      vertex -6.18034 -19.0211 1
      vertex -12.1353 -8.81678 1
      vertex -10 -17.3205 1
    endloop
  endfacet
  facet normal 0 0 1
    outer loop
      vertex -12.1353 -8.81678 1
      vertex -13.7032 -6.10105 1
      vertex -10 -17.3205 1
    endloop
  endfacet
  facet normal 0 0 1
    outer loop
      vertex -10.037 -11.1472 1
      vertex -12.1353 -8.81678 1
      vertex -6.18034 -19.0211 1
    endloop
  endfacet
  facet normal 0 0 1
    outer loop
      vertex -13.7032 -6.10105 1
      vertex -14.6722 -3.11867 1
      vertex -19.563 4.15823 1
    endloop
  endfacet
  facet normal 0 0 1
    outer loop
      vertex -14.6722 -3.11867 1
      vertex -15 0 1
      vertex -19.563 4.15823 1
    endloop
  endfacet
  facet normal 0 0 1
    outer loop
      vertex -4.63525 -14.2658 1
      vertex -7.5 -12.9904 1
      vertex -2.09057 -19.8904 1
    endloop
  endfacet
  facet normal 0 0 1
    outer loop
      vertex -1.56793 -14.9178 1
      vertex -4.63525 -14.2658 1
      vertex 2.09057 -19.8904 1
    endloop
  endfacet
  facet normal 0 0 1
    outer loop
      vertex -15 0 1
      vertex -14.6722 3.11867 1
      vertex -19.563 4.15823 1
    endloop
  endfacet
  facet normal 0 0 1
    outer loop
      vertex 13.7032 -6.10105 1
      vertex 12.1353 -8.81678 1
      vertex 18.2709 -8.13473 1
    endloop
  endfacet
  facet normal 0 0 1
    outer loop
      vertex -14.6722 3.11867 1
      vertex -13.7032 6.10105 1
      vertex -19.563 4.15823 1
    endloop
  endfacet
  facet normal -0.994522 -0.104528 0
    outer loop
      vertex -15 0 1
      vertex -14.6722 -3.11867 1
      vertex -15 0 5
    endloop
  endfacet
  facet normal -0.994522 -0.104528 0
    outer loop
      vertex -15 0 5
      vertex -14.6722 -3.11867 1
      vertex -14.6722 -3.11867 5
    endloop
  endfacet
  facet normal -0.951057 -0.309017 0
    outer loop
      vertex -14.6722 -3.11867 1
      vertex -13.7032 -6.10105 1
      vertex -14.6722 -3.11867 5
    endloop
  endfacet
  facet normal -0.951057 -0.309017 0
    outer loop
      vertex -14.6722 -3.11867 5
      vertex -13.7032 -6.10105 1
      vertex -13.7032 -6.10105 5
    endloop
  endfacet
  facet normal -0.866025 -0.5 0
    outer loop
      vertex -13.7032 -6.10105 1
      vertex -12.1353 -8.81678 1
      vertex -13.7032 -6.10105 5
    endloop
  endfacet
  facet normal -0.866025 -0.5 0
    outer loop
      vertex -13.7032 -6.10105 5
      vertex -12.1353 -8.81678 1
      vertex -12.1353 -8.81678 5
    endloop
  endfacet
  facet normal -0.743145 -0.669131 0
    outer loop
      vertex -12.1353 -8.81678 1
      vertex -10.037 -11.1472 1
      vertex -12.1353 -8.81678 5
    endloop
  endfacet
  facet normal -0.743145 -0.669131 0
    outer loop
      vertex -12.1353 -8.81678 5
      vertex -10.037 -11.1472 1
      vertex -10.037 -11.1472 5
    endloop
  endfacet
  facet normal -0.587785 -0.809017 0
    outer loop
      vertex -10.037 -11.1472 5
      vertex -10.037 -11.1472 1
      vertex -7.5 -12.9904 1
    endloop
  endfacet
  facet normal -0.587785 -0.809017 0
    outer loop
      vertex -7.5 -12.9904 5
      vertex -10.037 -11.1472 5
      vertex -7.5 -12.9904 1
    endloop
  endfacet
  facet normal -0.406737 -0.913545 0
    outer loop
      vertex -7.5 -12.9904 5
      vertex -7.5 -12.9904 1
      vertex -4.63525 -14.2658 1
    endloop
  endfacet
  facet normal -0.406737 -0.913545 0
    outer loop
      vertex -4.63525 -14.2658 5
      vertex -7.5 -12.9904 5
      vertex -4.63525 -14.2658 1
    endloop
  endfacet
  facet normal -0.207911 -0.978148 0
    outer loop
      vertex -4.63525 -14.2658 5
      vertex -4.63525 -14.2658 1
      vertex -1.56793 -14.9178 1
    endloop
  endfacet
  facet normal -0.207911 -0.978148 0
    outer loop
      vertex -1.56793 -14.9178 5
      vertex -4.63525 -14.2658 5
      vertex -1.56793 -14.9178 1
    endloop
  endfacet
  facet normal 0 -1 0
    outer loop
      vertex -1.56793 -14.9178 5
      vertex -1.56793 -14.9178 1
      vertex 1.56793 -14.9178 1
    endloop
  endfacet
  facet normal 0 -1 0
    outer loop
      vertex 1.56793 -14.9178 5
      vertex -1.56793 -14.9178 5
      vertex 1.56793 -14.9178 1
    endloop
  endfacet
  facet normal 0.207911 -0.978148 0
    outer loop
      vertex 1.56793 -14.9178 5
      vertex 1.56793 -14.9178 1
      vertex 4.63525 -14.2658 1
    endloop
  endfacet
  facet normal 0.207911 -0.978148 0
    outer loop
      vertex 4.63525 -14.2658 5
      vertex 1.56793 -14.9178 5
      vertex 4.63525 -14.2658 1
    endloop
  endfacet
  facet normal 0.406737 -0.913545 0
    outer loop
      vertex 4.63525 -14.2658 5
      vertex 4.63525 -14.2658 1
      vertex 7.5 -12.9904 1
    endloop
  endfacet
  facet normal 0.406737 -0.913545 0
    outer loop
      vertex 7.5 -12.9904 5
      vertex 4.63525 -14.2658 5
      vertex 7.5 -12.9904 1
    endloop
  endfacet
  facet normal 0.587785 -0.809017 0
    outer loop
      vertex 7.5 -12.9904 5
      vertex 7.5 -12.9904 1
      vertex 10.037 -11.1472 1
    endloop
  endfacet
  facet normal 0.587785 -0.809017 0
    outer loop
      vertex 10.037 -11.1472 5
      vertex 7.5 -12.9904 5
      vertex 10.037 -11.1472 1
    endloop
  endfacet
  facet normal 0.743145 -0.669131 0
    outer loop
      vertex 10.037 -11.1472 5
      vertex 10.037 -11.1472 1
      vertex 12.1353 -8.81678 1
    endloop
  endfacet
  facet normal 0.743145 -0.669131 0
    outer loop
      vertex 12.1353 -8.81678 5
      vertex 10.037 -11.1472 5
      vertex 12.1353 -8.81678 1
    endloop
  endfacet
  facet normal 0.866025 -0.5 0
    outer loop
      vertex 12.1353 -8.81678 5
      vertex 12.1353 -8.81678 1
      vertex 13.7032 -6.10105 1
    endloop
  endfacet
  facet normal 0.866025 -0.5 0
    outer loop
      vertex 13.7032 -6.10105 5
      vertex 12.1353 -8.81678 5
      vertex 13.7032 -6.10105 1
    endloop
  endfacet
  facet normal 0.951057 -0.309017 0
    outer loop
      vertex 13.7032 -6.10105 5
      vertex 13.7032 -6.10105 1
      vertex 14.6722 -3.11867 1
    endloop
  endfacet
  facet normal 0.951057 -0.309017 0
    outer loop
      vertex 14.6722 -3.11867 5
      vertex 13.7032 -6.10105 5
      vertex 14.6722 -3.11867 1
    endloop
  endfacet
  facet normal 0.994522 -0.104528 0
    outer loop
      vertex 14.6722 -3.11867 5
      vertex 14.6722 -3.11867 1
      vertex 15 0 1
    endloop
  endfacet
  facet normal 0.994522 -0.104528 0
    outer loop
      vertex 15 0 5
      vertex 14.6722 -3.11867 5
      vertex 15 0 1
    endloop
  endfacet
  facet normal 0.994522 0.104528 0
    outer loop
      vertex 15 0 1
      vertex 14.6722 3.11867 1
      vertex 14.6722 3.11867 5
    endloop
  endfacet
  facet normal 0.994522 0.104528 0
    outer loop
      vertex 15 0 5
      vertex 15 0 1
      vertex 14.6722 3.11867 5
    endloop
  endfacet
  facet normal 0.951057 0.309017 0
    outer loop
      vertex 14.6722 3.11867 1
      vertex 13.7032 6.10105 1
      vertex 13.7032 6.10105 5
    endloop
  endfacet
  facet normal 0.951057 0.309017 0
    outer loop
      vertex 14.6722 3.11867 5
      vertex 14.6722 3.11867 1
      vertex 13.7032 6.10105 5
    endloop
  endfacet
  facet normal 0.866025 0.5 0
    outer loop
      vertex 13.7032 6.10105 1
      vertex 12.1353 8.81678 1
      vertex 12.1353 8.81678 5
    endloop
  endfacet
  facet normal 0.866025 0.5 0
    outer loop
      vertex 13.7032 6.10105 5
      vertex 13.7032 6.10105 1
      vertex 12.1353 8.81678 5
    endloop
  endfacet
  facet normal 0.743145 0.669131 0
    outer loop
      vertex 12.1353 8.81678 1
      vertex 10.037 11.1472 1
      vertex 10.037 11.1472 5
    endloop
  endfacet
  facet normal 0.743145 0.669131 0
    outer loop
      vertex 12.1353 8.81678 5
      vertex 12.1353 8.81678 1
      vertex 10.037 11.1472 5
    endloop
  endfacet
  facet normal 0.587785 0.809017 0
    outer loop
      vertex 7.5 12.9904 1
      vertex 7.5 12.9904 5
      vertex 10.037 11.1472 1
    endloop
  endfacet
  facet normal 0.587785 0.809017 0
    outer loop
      vertex 10.037 11.1472 1
      vertex 7.5 12.9904 5
      vertex 10.037 11.1472 5
    endloop
  endfacet
  facet normal 0.406737 0.913545 0
    outer loop
      vertex 4.63525 14.2658 1
      vertex 4.63525 14.2658 5
      vertex 7.5 12.9904 1
    endloop
  endfacet
  facet normal 0.406737 0.913545 0
    outer loop
      vertex 7.5 12.9904 1
      vertex 4.63525 14.2658 5
      vertex 7.5 12.9904 5
    endloop
  endfacet
  facet normal 0.207911 0.978148 0
    outer loop
      vertex 1.56793 14.9178 1
      vertex 1.56793 14.9178 5
      vertex 4.63525 14.2658 1
    endloop
  endfacet
  facet normal 0.207911 0.978148 0
    outer loop
      vertex 4.63525 14.2658 1
      vertex 1.56793 14.9178 5
      vertex 4.63525 14.2658 5
    endloop
  endfacet
  facet normal 0 1 0
    outer loop
      vertex -1.56793 14.9178 1
      vertex -1.56793 14.9178 5
      vertex 1.56793 14.9178 1
    endloop
  endfacet
  facet normal 0 1 0
    outer loop
      vertex 1.56793 14.9178 1
      vertex -1.56793 14.9178 5
      vertex 1.56793 14.9178 5
    endloop
  endfacet
  facet normal -0.207911 0.978148 0
    outer loop
      vertex -4.63525 14.2658 1
      vertex -4.63525 14.2658 5
      vertex -1.56793 14.9178 1
    endloop
  endfacet
  facet normal -0.207911 0.978148 0
    outer loop
      vertex -1.56793 14.9178 1
      vertex -4.63525 14.2658 5
      vertex -1.56793 14.9178 5
    endloop
  endfacet
  facet normal -0.406737 0.913545 0
    outer loop
      vertex -7.5 12.9904 1
      vertex -7.5 12.9904 5
      vertex -4.63525 14.2658 1
    endloop
  endfacet
  facet normal -0.406737 0.913545 0
    outer loop
      vertex -4.63525 14.2658 1
      vertex -7.5 12.9904 5
      vertex -4.63525 14.2658 5
    endloop
  endfacet
  facet normal -0.587785 0.809017 0
    outer loop
      vertex -10.037 11.1472 1
      vertex -10.037 11.1472 5
      vertex -7.5 12.9904 1
    endloop
  endfacet
  facet normal -0.587785 0.809017 0
    outer loop
      vertex -7.5 12.9904 1
      vertex -10.037 11.1472 5
      vertex -7.5 12.9904 5
    endloop
  endfacet
  facet normal -0.743145 0.669131 0
    outer loop
      vertex -12.1353 8.81678 1
      vertex -12.1353 8.81678 5
      vertex -10.037 11.1472 1
    endloop
  endfacet
  facet normal -0.743145 0.669131 0
    outer loop
      vertex -10.037 11.1472 1
      vertex -12.1353 8.81678 5
      vertex -10.037 11.1472 5
    endloop
  endfacet
  facet normal -0.866025 0.5 0
    outer loop
      vertex -13.7032 6.10105 1
      vertex -13.7032 6.10105 5
      vertex -12.1353 8.81678 1
    endloop
  endfacet
  facet normal -0.866025 0.5 0
    outer loop
      vertex -12.1353 8.81678 1
      vertex -13.7032 6.10105 5
      vertex -12.1353 8.81678 5
    endloop
  endfacet
  facet normal -0.951057 0.309017 0
    outer loop
      vertex -14.6722 3.11867 1
      vertex -14.6722 3.11867 5
      vertex -13.7032 6.10105 1
    endloop
  endfacet
  facet normal -0.951057 0.309017 0
    outer loop
      vertex -13.7032 6.10105 1
      vertex -14.6722 3.11867 5
      vertex -13.7032 6.10105 5
    endloop
  endfacet
  facet normal -0.994522 0.104528 0
    outer loop
      vertex -15 0 1
      vertex -15 0 5
      vertex -14.6722 3.11867 1
    endloop
  endfacet
  facet normal -0.994522 0.104528 0
    outer loop
      vertex -14.6722 3.11867 1
      vertex -15 0 5
      vertex -14.6722 3.11867 5
    endloop
  endfacet
  facet normal -0.975414 0.10252 0.195083
    outer loop
      vertex -12.7159 2.70285 15
      vertex -15 0 5
      vertex -13 0 15
    endloop
  endfacet
  facet normal -0.975414 -0.10252 0.195083
    outer loop
      vertex -13 0 15
      vertex -15 0 5
      vertex -12.7159 -2.70285 15
    endloop
  endfacet
  facet normal -0.975414 -0.10252 0.195083
    outer loop
      vertex -12.7159 -2.70285 15
      vertex -15 0 5
      vertex -14.6722 -3.11867 5
    endloop
  endfacet
  facet normal -0.975414 0.10252 0.195083
    outer loop
      vertex -14.6722 3.11867 5
      vertex -15 0 5
      vertex -12.7159 2.70285 15
    endloop
  endfacet
  facet normal -0.932784 -0.30308 0.195083
    outer loop
      vertex -12.7159 -2.70285 15
      vertex -14.6722 -3.11867 5
      vertex -13.7032 -6.10105 5
    endloop
  endfacet
  facet normal -0.849386 -0.490393 0.195083
    outer loop
      vertex -11.8761 -5.28758 15
      vertex -13.7032 -6.10105 5
      vertex -10.5172 -7.64121 15
    endloop
  endfacet
  facet normal -0.849386 -0.490393 0.195083
    outer loop
      vertex -10.5172 -7.64121 15
      vertex -13.7032 -6.10105 5
      vertex -12.1353 -8.81678 5
    endloop
  endfacet
  facet normal -0.932784 -0.30308 0.195083
    outer loop
      vertex -12.7159 -2.70285 15
      vertex -13.7032 -6.10105 5
      vertex -11.8761 -5.28758 15
    endloop
  endfacet
  facet normal -0.728867 -0.656274 0.195083
    outer loop
      vertex -10.5172 -7.64121 15
      vertex -12.1353 -8.81678 5
      vertex -8.6987 -9.66088 15
    endloop
  endfacet
  facet normal -0.728867 -0.656275 0.195083
    outer loop
      vertex -8.6987 -9.66088 15
      vertex -12.1353 -8.81678 5
      vertex -10.037 -11.1472 5
    endloop
  endfacet
  facet normal -0.576492 -0.793473 0.195083
    outer loop
      vertex -8.6987 -9.66088 15
      vertex -10.037 -11.1472 5
      vertex -7.5 -12.9904 5
    endloop
  endfacet
  facet normal -0.576492 -0.793473 0.195083
    outer loop
      vertex -6.5 -11.2583 15
      vertex -8.6987 -9.66088 15
      vertex -7.5 -12.9904 5
    endloop
  endfacet
  facet normal -0.398922 -0.895993 0.195083
    outer loop
      vertex -6.5 -11.2583 15
      vertex -7.5 -12.9904 5
      vertex -4.01722 -12.3637 15
    endloop
  endfacet
  facet normal -0.398922 -0.895993 0.195083
    outer loop
      vertex -4.01722 -12.3637 15
      vertex -7.5 -12.9904 5
      vertex -4.63525 -14.2658 5
    endloop
  endfacet
  facet normal -0.203917 -0.959354 0.195083
    outer loop
      vertex -1.35887 -12.9288 15
      vertex -4.63525 -14.2658 5
      vertex -1.56793 -14.9178 5
    endloop
  endfacet
  facet normal -0.203917 -0.959354 0.195083
    outer loop
      vertex -4.01722 -12.3637 15
      vertex -4.63525 -14.2658 5
      vertex -1.35887 -12.9288 15
    endloop
  endfacet
  facet normal 0 -0.980787 0.195083
    outer loop
      vertex -1.35887 -12.9288 15
      vertex -1.56793 -14.9178 5
      vertex 1.56793 -14.9178 5
    endloop
  endfacet
  facet normal 0 -0.980787 0.195083
    outer loop
      vertex 1.35887 -12.9288 15
      vertex -1.35887 -12.9288 15
      vertex 1.56793 -14.9178 5
    endloop
  endfacet
  facet normal 0.203917 -0.959354 0.195083
    outer loop
      vertex 4.63525 -14.2658 5
      vertex 1.35887 -12.9288 15
      vertex 1.56793 -14.9178 5
    endloop
  endfacet
  facet normal 0.203917 -0.959354 0.195083
    outer loop
      vertex 4.01722 -12.3637 15
      vertex 1.35887 -12.9288 15
      vertex 4.63525 -14.2658 5
    endloop
  endfacet
  facet normal 0.398922 -0.895993 0.195083
    outer loop
      vertex 7.5 -12.9904 5
      vertex 4.01722 -12.3637 15
      vertex 4.63525 -14.2658 5
    endloop
  endfacet
  facet normal 0.576492 -0.793473 0.195083
    outer loop
      vertex 8.6987 -9.66088 15
      vertex 7.5 -12.9904 5
      vertex 10.037 -11.1472 5
    endloop
  endfacet
  facet normal 0.398922 -0.895993 0.195083
    outer loop
      vertex 6.5 -11.2583 15
      vertex 4.01722 -12.3637 15
      vertex 7.5 -12.9904 5
    endloop
  endfacet
  facet normal 0.576492 -0.793473 0.195083
    outer loop
      vertex 8.6987 -9.66088 15
      vertex 6.5 -11.2583 15
      vertex 7.5 -12.9904 5
    endloop
  endfacet
  facet normal 0.728867 -0.656275 0.195083
    outer loop
      vertex 12.1353 -8.81678 5
      vertex 8.6987 -9.66088 15
      vertex 10.037 -11.1472 5
    endloop
  endfacet
  facet normal 0.728867 -0.656274 0.195083
    outer loop
      vertex 10.5172 -7.64121 15
      vertex 8.6987 -9.66088 15
      vertex 12.1353 -8.81678 5
    endloop
  endfacet
  facet normal 0.849386 -0.490393 0.195083
    outer loop
      vertex 13.7032 -6.10105 5
      vertex 10.5172 -7.64121 15
      vertex 12.1353 -8.81678 5
    endloop
  endfacet
  facet normal 0.932784 -0.30308 0.195083
    outer loop
      vertex 12.7159 -2.70285 15
      vertex 11.8761 -5.28758 15
      vertex 13.7032 -6.10105 5
    endloop
  endfacet
  facet normal 0.932784 -0.30308 0.195083
    outer loop
      vertex 14.6722 -3.11867 5
      vertex 12.7159 -2.70285 15
      vertex 13.7032 -6.10105 5
    endloop
  endfacet
  facet normal 0.849386 -0.490393 0.195083
    outer loop
      vertex 11.8761 -5.28758 15
      vertex 10.5172 -7.64121 15
      vertex 13.7032 -6.10105 5
    endloop
  endfacet
  facet normal 0.975414 -0.10252 0.195083
    outer loop
      vertex 15 0 5
      vertex 12.7159 -2.70285 15
      vertex 14.6722 -3.11867 5
    endloop
  endfacet
  facet normal 0.975414 0.10252 0.195083
    outer loop
      vertex 15 0 5
      vertex 12.7159 2.70285 15
      vertex 13 0 15
    endloop
  endfacet
  facet normal 0.975414 0.10252 0.195083
    outer loop
      vertex 14.6722 3.11867 5
      vertex 12.7159 2.70285 15
      vertex 15 0 5
    endloop
  endfacet
  facet normal 0.975414 -0.10252 0.195083
    outer loop
      vertex 13 0 15
      vertex 12.7159 -2.70285 15
      vertex 15 0 5
    endloop
  endfacet
  facet normal 0.932784 0.30308 0.195083
    outer loop
      vertex 13.7032 6.10105 5
      vertex 12.7159 2.70285 15
      vertex 14.6722 3.11867 5
    endloop
  endfacet
  facet normal 0.849386 0.490393 0.195083
    outer loop
      vertex 13.7032 6.10105 5
      vertex 10.5172 7.64121 15
      vertex 11.8761 5.28758 15
    endloop
  endfacet
  facet normal 0.849386 0.490393 0.195083
    outer loop
      vertex 12.1353 8.81678 5
      vertex 10.5172 7.64121 15
      vertex 13.7032 6.10105 5
    endloop
  endfacet
  facet normal 0.932784 0.30308 0.195083
    outer loop
      vertex 13.7032 6.10105 5
      vertex 11.8761 5.28758 15
      vertex 12.7159 2.70285 15
    endloop
  endfacet
  facet normal 0.728867 0.656274 0.195083
    outer loop
      vertex 12.1353 8.81678 5
      vertex 8.6987 9.66088 15
      vertex 10.5172 7.64121 15
    endloop
  endfacet
  facet normal 0.728867 0.656275 0.195083
    outer loop
      vertex 10.037 11.1472 5
      vertex 8.6987 9.66088 15
      vertex 12.1353 8.81678 5
    endloop
  endfacet
  facet normal 0.576492 0.793473 0.195083
    outer loop
      vertex 10.037 11.1472 5
      vertex 7.5 12.9904 5
      vertex 8.6987 9.66088 15
    endloop
  endfacet
  facet normal 0.398922 0.895993 0.195083
    outer loop
      vertex 7.5 12.9904 5
      vertex 4.01722 12.3637 15
      vertex 6.5 11.2583 15
    endloop
  endfacet
  facet normal 0.398922 0.895993 0.195083
    outer loop
      vertex 4.63525 14.2658 5
      vertex 4.01722 12.3637 15
      vertex 7.5 12.9904 5
    endloop
  endfacet
  facet normal 0.576492 0.793473 0.195083
    outer loop
      vertex 7.5 12.9904 5
      vertex 6.5 11.2583 15
      vertex 8.6987 9.66088 15
    endloop
  endfacet
  facet normal 0.203917 0.959354 0.195083
    outer loop
      vertex 4.63525 14.2658 5
      vertex 1.35887 12.9288 15
      vertex 4.01722 12.3637 15
    endloop
  endfacet
  facet normal 0.203917 0.959354 0.195083
    outer loop
      vertex 1.56793 14.9178 5
      vertex 1.35887 12.9288 15
      vertex 4.63525 14.2658 5
    endloop
  endfacet
  facet normal 0 0.980787 0.195083
    outer loop
      vertex -1.56793 14.9178 5
      vertex -1.35887 12.9288 15
      vertex 1.56793 14.9178 5
    endloop
  endfacet
  facet normal 0 0.980787 0.195083
    outer loop
      vertex 1.56793 14.9178 5
      vertex -1.35887 12.9288 15
      vertex 1.35887 12.9288 15
    endloop
  endfacet
  facet normal -0.203917 0.959354 0.195083
    outer loop
      vertex -1.56793 14.9178 5
      vertex -4.63525 14.2658 5
      vertex -1.35887 12.9288 15
    endloop
  endfacet
  facet normal -0.203917 0.959354 0.195083
    outer loop
      vertex -1.35887 12.9288 15
      vertex -4.63525 14.2658 5
      vertex -4.01722 12.3637 15
    endloop
  endfacet
  facet normal -0.398922 0.895993 0.195083
    outer loop
      vertex -4.63525 14.2658 5
      vertex -7.5 12.9904 5
      vertex -4.01722 12.3637 15
    endloop
  endfacet
  facet normal -0.576492 0.793473 0.195083
    outer loop
      vertex -7.5 12.9904 5
      vertex -8.6987 9.66088 15
      vertex -6.5 11.2583 15
    endloop
  endfacet
  facet normal -0.576492 0.793473 0.195083
    outer loop
      vertex -7.5 12.9904 5
      vertex -10.037 11.1472 5
      vertex -8.6987 9.66088 15
    endloop
  endfacet
  facet normal -0.398922 0.895993 0.195083
    outer loop
      vertex -4.01722 12.3637 15
      vertex -7.5 12.9904 5
      vertex -6.5 11.2583 15
    endloop
  endfacet
  facet normal -0.728867 0.656275 0.195083
    outer loop
      vertex -10.037 11.1472 5
      vertex -12.1353 8.81678 5
      vertex -8.6987 9.66088 15
    endloop
  endfacet
  facet normal -0.728867 0.656274 0.195083
    outer loop
      vertex -8.6987 9.66088 15
      vertex -12.1353 8.81678 5
      vertex -10.5172 7.64121 15
    endloop
  endfacet
  facet normal -0.849386 0.490393 0.195083
    outer loop
      vertex -12.1353 8.81678 5
      vertex -13.7032 6.10105 5
      vertex -10.5172 7.64121 15
    endloop
  endfacet
  facet normal -0.932784 0.30308 0.195083
    outer loop
      vertex -11.8761 5.28758 15
      vertex -13.7032 6.10105 5
      vertex -12.7159 2.70285 15
    endloop
  endfacet
  facet normal -0.932784 0.30308 0.195083
    outer loop
      vertex -13.7032 6.10105 5
      vertex -14.6722 3.11867 5
      vertex -12.7159 2.70285 15
    endloop
  endfacet
  facet normal -0.849386 0.490393 0.195083
    outer loop
      vertex -10.5172 7.64121 15
      vertex -13.7032 6.10105 5
      vertex -11.8761 5.28758 15
    endloop
  endfacet
  facet normal -0.985892 0.103621 -0.131452
    outer loop
      vertex -13 0 15
      vertex -15 0 30
      vertex -12.7159 2.70285 15
    endloop
  endfacet
  facet normal -0.942804 0.306336 -0.131452
    outer loop
      vertex -12.7159 2.70285 15
      vertex -13.7032 6.10105 30
      vertex -11.8761 5.28758 15
    endloop
  endfacet
  facet normal -0.942804 0.306335 -0.131452
    outer loop
      vertex -12.7159 2.70285 15
      vertex -14.6722 3.11867 30
      vertex -13.7032 6.10105 30
    endloop
  endfacet
  facet normal -0.985892 0.103621 -0.131452
    outer loop
      vertex -12.7159 2.70285 15
      vertex -15 0 30
      vertex -14.6722 3.11867 30
    endloop
  endfacet
  facet normal -0.985892 -0.103621 -0.131452
    outer loop
      vertex -12.7159 -2.70285 15
      vertex -15 0 30
      vertex -13 0 15
    endloop
  endfacet
  facet normal -0.985892 -0.103621 -0.131452
    outer loop
      vertex -14.6722 -3.11867 30
      vertex -15 0 30
      vertex -12.7159 -2.70285 15
    endloop
  endfacet
  facet normal -0.942804 -0.306335 -0.131452
    outer loop
      vertex -13.7032 -6.10105 30
      vertex -14.6722 -3.11867 30
      vertex -12.7159 -2.70285 15
    endloop
  endfacet
  facet normal -0.942804 -0.306336 -0.131452
    outer loop
      vertex -11.8761 -5.28758 15
      vertex -13.7032 -6.10105 30
      vertex -12.7159 -2.70285 15
    endloop
  endfacet
  facet normal -0.85851 -0.495661 -0.131452
    outer loop
      vertex -10.5172 -7.64121 15
      vertex -13.7032 -6.10105 30
      vertex -11.8761 -5.28758 15
    endloop
  endfacet
  facet normal -0.85851 -0.495661 -0.131452
    outer loop
      vertex -12.1353 -8.81678 30
      vertex -13.7032 -6.10105 30
      vertex -10.5172 -7.64121 15
    endloop
  endfacet
  facet normal -0.736696 -0.663324 -0.131452
    outer loop
      vertex -8.6987 -9.66088 15
      vertex -12.1353 -8.81678 30
      vertex -10.5172 -7.64121 15
    endloop
  endfacet
  facet normal -0.736696 -0.663324 -0.131452
    outer loop
      vertex -10.037 -11.1472 30
      vertex -12.1353 -8.81678 30
      vertex -8.6987 -9.66088 15
    endloop
  endfacet
  facet normal -0.582685 -0.801997 -0.131452
    outer loop
      vertex -7.5 -12.9904 30
      vertex -10.037 -11.1472 30
      vertex -8.6987 -9.66088 15
    endloop
  endfacet
  facet normal -0.582685 -0.801997 -0.131452
    outer loop
      vertex -7.5 -12.9904 30
      vertex -8.6987 -9.66088 15
      vertex -6.5 -11.2583 15
    endloop
  endfacet
  facet normal -0.403207 -0.905618 -0.131452
    outer loop
      vertex -4.01722 -12.3637 15
      vertex -7.5 -12.9904 30
      vertex -6.5 -11.2583 15
    endloop
  endfacet
  facet normal -0.403207 -0.905618 -0.131452
    outer loop
      vertex -4.63525 -14.2658 30
      vertex -7.5 -12.9904 30
      vertex -4.01722 -12.3637 15
    endloop
  endfacet
  facet normal -0.206108 -0.96966 -0.131452
    outer loop
      vertex -1.35887 -12.9288 15
      vertex -4.63525 -14.2658 30
      vertex -4.01722 -12.3637 15
    endloop
  endfacet
  facet normal -0.206107 -0.96966 -0.131452
    outer loop
      vertex -1.56793 -14.9178 30
      vertex -4.63525 -14.2658 30
      vertex -1.35887 -12.9288 15
    endloop
  endfacet
  facet normal 0 -0.991323 -0.131452
    outer loop
      vertex 1.56793 -14.9178 30
      vertex -1.56793 -14.9178 30
      vertex -1.35887 -12.9288 15
    endloop
  endfacet
  facet normal 0 -0.991323 -0.131452
    outer loop
      vertex 1.35887 -12.9288 15
      vertex 1.56793 -14.9178 30
      vertex -1.35887 -12.9288 15
    endloop
  endfacet
  facet normal 0.206107 -0.96966 -0.131452
    outer loop
      vertex 1.56793 -14.9178 30
      vertex 1.35887 -12.9288 15
      vertex 4.63525 -14.2658 30
    endloop
  endfacet
  facet normal 0.206108 -0.96966 -0.131452
    outer loop
      vertex 4.63525 -14.2658 30
      vertex 1.35887 -12.9288 15
      vertex 4.01722 -12.3637 15
    endloop
  endfacet
  facet normal 0.403207 -0.905618 -0.131452
    outer loop
      vertex 4.63525 -14.2658 30
      vertex 4.01722 -12.3637 15
      vertex 7.5 -12.9904 30
    endloop
  endfacet
  facet normal 0.403207 -0.905618 -0.131452
    outer loop
      vertex 7.5 -12.9904 30
      vertex 4.01722 -12.3637 15
      vertex 6.5 -11.2583 15
    endloop
  endfacet
  facet normal 0.582685 -0.801997 -0.131452
    outer loop
      vertex 7.5 -12.9904 30
      vertex 6.5 -11.2583 15
      vertex 8.6987 -9.66088 15
    endloop
  endfacet
  facet normal 0.582685 -0.801997 -0.131452
    outer loop
      vertex 10.037 -11.1472 30
      vertex 7.5 -12.9904 30
      vertex 8.6987 -9.66088 15
    endloop
  endfacet
  facet normal 0.736696 -0.663324 -0.131452
    outer loop
      vertex 10.037 -11.1472 30
      vertex 8.6987 -9.66088 15
      vertex 12.1353 -8.81678 30
    endloop
  endfacet
  facet normal 0.736696 -0.663324 -0.131452
    outer loop
      vertex 12.1353 -8.81678 30
      vertex 8.6987 -9.66088 15
      vertex 10.5172 -7.64121 15
    endloop
  endfacet
  facet normal 0.85851 -0.495661 -0.131452
    outer loop
      vertex 12.1353 -8.81678 30
      vertex 10.5172 -7.64121 15
      vertex 13.7032 -6.10105 30
    endloop
  endfacet
  facet normal 0.85851 -0.495661 -0.131452
    outer loop
      vertex 13.7032 -6.10105 30
      vertex 10.5172 -7.64121 15
      vertex 11.8761 -5.28758 15
    endloop
  endfacet
  facet normal 0.942804 -0.306336 -0.131452
    outer loop
      vertex 13.7032 -6.10105 30
      vertex 11.8761 -5.28758 15
      vertex 12.7159 -2.70285 15
    endloop
  endfacet
  facet normal 0.942804 -0.306335 -0.131452
    outer loop
      vertex 13.7032 -6.10105 30
      vertex 12.7159 -2.70285 15
      vertex 14.6722 -3.11867 30
    endloop
  endfacet
  facet normal 0.985892 -0.103621 -0.131452
    outer loop
      vertex 14.6722 -3.11867 30
      vertex 12.7159 -2.70285 15
      vertex 15 0 30
    endloop
  endfacet
  facet normal 0.985892 -0.103621 -0.131452
    outer loop
      vertex 15 0 30
      vertex 12.7159 -2.70285 15
      vertex 13 0 15
    endloop
  endfacet
  facet normal 0.985892 0.103621 -0.131452
    outer loop
      vertex 13 0 15
      vertex 12.7159 2.70285 15
      vertex 15 0 30
    endloop
  endfacet
  facet normal 0.942804 0.306336 -0.131452
    outer loop
      vertex 12.7159 2.70285 15
      vertex 11.8761 5.28758 15
      vertex 13.7032 6.10105 30
    endloop
  endfacet
  facet normal 0.985892 0.103621 -0.131452
    outer loop
      vertex 15 0 30
      vertex 12.7159 2.70285 15
      vertex 14.6722 3.11867 30
    endloop
  endfacet
  facet normal 0.942804 0.306335 -0.131452
    outer loop
      vertex 14.6722 3.11867 30
      vertex 12.7159 2.70285 15
      vertex 13.7032 6.10105 30
    endloop
  endfacet
  facet normal 0.85851 0.495661 -0.131452
    outer loop
      vertex 11.8761 5.28758 15
      vertex 10.5172 7.64121 15
      vertex 13.7032 6.10105 30
    endloop
  endfacet
  facet normal 0.736696 0.663324 -0.131452
    outer loop
      vertex 10.5172 7.64121 15
      vertex 8.6987 9.66088 15
      vertex 12.1353 8.81678 30
    endloop
  endfacet
  facet normal 0.85851 0.495661 -0.131452
    outer loop
      vertex 13.7032 6.10105 30
      vertex 10.5172 7.64121 15
      vertex 12.1353 8.81678 30
    endloop
  endfacet
  facet normal 0.582685 0.801997 -0.131452
    outer loop
      vertex 8.6987 9.66088 15
      vertex 6.5 11.2583 15
      vertex 7.5 12.9904 30
    endloop
  endfacet
  facet normal 0.736696 0.663324 -0.131452
    outer loop
      vertex 12.1353 8.81678 30
      vertex 8.6987 9.66088 15
      vertex 10.037 11.1472 30
    endloop
  endfacet
  facet normal 0.582685 0.801997 -0.131452
    outer loop
      vertex 8.6987 9.66088 15
      vertex 7.5 12.9904 30
      vertex 10.037 11.1472 30
    endloop
  endfacet
  facet normal 0.403207 0.905618 -0.131452
    outer loop
      vertex 6.5 11.2583 15
      vertex 4.01722 12.3637 15
      vertex 7.5 12.9904 30
    endloop
  endfacet
  facet normal 0.206108 0.96966 -0.131452
    outer loop
      vertex 4.01722 12.3637 15
      vertex 1.35887 12.9288 15
      vertex 4.63525 14.2658 30
    endloop
  endfacet
  facet normal 0.403207 0.905618 -0.131452
    outer loop
      vertex 7.5 12.9904 30
      vertex 4.01722 12.3637 15
      vertex 4.63525 14.2658 30
    endloop
  endfacet
  facet normal 0 0.991323 -0.131452
    outer loop
      vertex -1.56793 14.9178 30
      vertex 1.56793 14.9178 30
      vertex -1.35887 12.9288 15
    endloop
  endfacet
  facet normal 0 0.991323 -0.131452
    outer loop
      vertex -1.35887 12.9288 15
      vertex 1.56793 14.9178 30
      vertex 1.35887 12.9288 15
    endloop
  endfacet
  facet normal 0.206107 0.96966 -0.131452
    outer loop
      vertex 4.63525 14.2658 30
      vertex 1.35887 12.9288 15
      vertex 1.56793 14.9178 30
    endloop
  endfacet
  facet normal -0.206108 0.96966 -0.131452
    outer loop
      vertex -4.01722 12.3637 15
      vertex -4.63525 14.2658 30
      vertex -1.35887 12.9288 15
    endloop
  endfacet
  facet normal -0.206107 0.96966 -0.131452
    outer loop
      vertex -1.35887 12.9288 15
      vertex -4.63525 14.2658 30
      vertex -1.56793 14.9178 30
    endloop
  endfacet
  facet normal -0.403207 0.905618 -0.131452
    outer loop
      vertex -6.5 11.2583 15
      vertex -7.5 12.9904 30
      vertex -4.01722 12.3637 15
    endloop
  endfacet
  facet normal -0.403207 0.905618 -0.131452
    outer loop
      vertex -4.01722 12.3637 15
      vertex -7.5 12.9904 30
      vertex -4.63525 14.2658 30
    endloop
  endfacet
  facet normal -0.582685 0.801997 -0.131452
    outer loop
      vertex -6.5 11.2583 15
      vertex -8.6987 9.66088 15
      vertex -7.5 12.9904 30
    endloop
  endfacet
  facet normal -0.736696 0.663324 -0.131452
    outer loop
      vertex -10.5172 7.64121 15
      vertex -12.1353 8.81678 30
      vertex -8.6987 9.66088 15
    endloop
  endfacet
  facet normal -0.582685 0.801997 -0.131452
    outer loop
      vertex -8.6987 9.66088 15
      vertex -10.037 11.1472 30
      vertex -7.5 12.9904 30
    endloop
  endfacet
  facet normal -0.736696 0.663324 -0.131452
    outer loop
      vertex -8.6987 9.66088 15
      vertex -12.1353 8.81678 30
      vertex -10.037 11.1472 30
    endloop
  endfacet
  facet normal -0.85851 0.495661 -0.131452
    outer loop
      vertex -11.8761 5.28758 15
      vertex -13.7032 6.10105 30
      vertex -10.5172 7.64121 15
    endloop
  endfacet
  facet normal -0.85851 0.495661 -0.131452
    outer loop
      vertex -10.5172 7.64121 15
      vertex -13.7032 6.10105 30
      vertex -12.1353 8.81678 30
    endloop
  endfacet
  facet normal -0.994522 0.104528 0
    outer loop
      vertex -15 0 30
      vertex -15 0 32
      vertex -14.6722 3.11867 30
    endloop
  endfacet
  facet normal -0.994522 0.104528 0
    outer loop
      vertex -14.6722 3.11867 30
      vertex -15 0 32
      vertex -14.6722 3.11867 32
    endloop
  endfacet
  facet normal -0.994522 -0.104528 0
    outer loop
      vertex -15 0 30
      vertex -14.6722 -3.11867 30
      vertex -15 0 32
    endloop
  endfacet
  facet normal -0.994522 -0.104528 0
    outer loop
      vertex -15 0 32
      vertex -14.6722 -3.11867 30
      vertex -14.6722 -3.11867 32
    endloop
  endfacet
  facet normal -0.866025 0.5 0
    outer loop
      vertex -13.7032 6.10105 30
      vertex -13.7032 6.10105 32
      vertex -12.1353 8.81678 30
    endloop
  endfacet
  facet normal -0.866025 0.5 0
    outer loop
      vertex -12.1353 8.81678 30
      vertex -13.7032 6.10105 32
      vertex -12.1353 8.81678 32
    endloop
  endfacet
  facet normal -0.951057 0.309017 0
    outer loop
      vertex -14.6722 3.11867 30
      vertex -14.6722 3.11867 32
      vertex -13.7032 6.10105 30
    endloop
  endfacet
  facet normal -0.951057 0.309017 0
    outer loop
      vertex -13.7032 6.10105 30
      vertex -14.6722 3.11867 32
      vertex -13.7032 6.10105 32
    endloop
  endfacet
  facet normal -0.951057 -0.309017 0
    outer loop
      vertex -14.6722 -3.11867 30
      vertex -13.7032 -6.10105 30
      vertex -14.6722 -3.11867 32
    endloop
  endfacet
  facet normal -0.951057 -0.309017 0
    outer loop
      vertex -14.6722 -3.11867 32
      vertex -13.7032 -6.10105 30
      vertex -13.7032 -6.10105 32
    endloop
  endfacet
  facet normal -0.866025 -0.5 0
    outer loop
      vertex -13.7032 -6.10105 30
      vertex -12.1353 -8.81678 30
      vertex -13.7032 -6.10105 32
    endloop
  endfacet
  facet normal -0.866025 -0.5 0
    outer loop
      vertex -13.7032 -6.10105 32
      vertex -12.1353 -8.81678 30
      vertex -12.1353 -8.81678 32
    endloop
  endfacet
  facet normal -0.743145 -0.669131 0
    outer loop
      vertex -12.1353 -8.81678 30
      vertex -10.037 -11.1472 30
      vertex -12.1353 -8.81678 32
    endloop
  endfacet
  facet normal -0.743145 -0.669131 0
    outer loop
      vertex -12.1353 -8.81678 32
      vertex -10.037 -11.1472 30
      vertex -10.037 -11.1472 32
    endloop
  endfacet
  facet normal -0.587785 -0.809017 0
    outer loop
      vertex -10.037 -11.1472 32
      vertex -10.037 -11.1472 30
      vertex -7.5 -12.9904 30
    endloop
  endfacet
  facet normal -0.587785 -0.809017 0
    outer loop
      vertex -7.5 -12.9904 32
      vertex -10.037 -11.1472 32
      vertex -7.5 -12.9904 30
    endloop
  endfacet
  facet normal -0.406737 -0.913545 0
    outer loop
      vertex -7.5 -12.9904 32
      vertex -7.5 -12.9904 30
      vertex -4.63525 -14.2658 30
    endloop
  endfacet
  facet normal -0.406737 -0.913545 0
    outer loop
      vertex -4.63525 -14.2658 32
      vertex -7.5 -12.9904 32
      vertex -4.63525 -14.2658 30
    endloop
  endfacet
  facet normal -0.207911 -0.978148 0
    outer loop
      vertex -4.63525 -14.2658 32
      vertex -4.63525 -14.2658 30
      vertex -1.56793 -14.9178 30
    endloop
  endfacet
  facet normal -0.207911 -0.978148 0
    outer loop
      vertex -1.56793 -14.9178 32
      vertex -4.63525 -14.2658 32
      vertex -1.56793 -14.9178 30
    endloop
  endfacet
  facet normal 0 -1 0
    outer loop
      vertex -1.56793 -14.9178 32
      vertex -1.56793 -14.9178 30
      vertex 1.56793 -14.9178 30
    endloop
  endfacet
  facet normal 0 -1 0
    outer loop
      vertex 1.56793 -14.9178 32
      vertex -1.56793 -14.9178 32
      vertex 1.56793 -14.9178 30
    endloop
  endfacet
  facet normal 0.207911 -0.978148 0
    outer loop
      vertex 1.56793 -14.9178 32
      vertex 1.56793 -14.9178 30
      vertex 4.63525 -14.2658 30
    endloop
  endfacet
  facet normal 0.207911 -0.978148 0
    outer loop
      vertex 4.63525 -14.2658 32
      vertex 1.56793 -14.9178 32
      vertex 4.63525 -14.2658 30
    endloop
  endfacet
  facet normal 0.406737 -0.913545 0
    outer loop
      vertex 4.63525 -14.2658 32
      vertex 4.63525 -14.2658 30
      vertex 7.5 -12.9904 30
    endloop
  endfacet
  facet normal 0.406737 -0.913545 0
    outer loop
      vertex 7.5 -12.9904 32
      vertex 4.63525 -14.2658 32
      vertex 7.5 -12.9904 30
    endloop
  endfacet
  facet normal 0.587785 -0.809017 0
    outer loop
      vertex 7.5 -12.9904 32
      vertex 7.5 -12.9904 30
      vertex 10.037 -11.1472 30
    endloop
  endfacet
  facet normal 0.587785 -0.809017 0
    outer loop
      vertex 10.037 -11.1472 32
      vertex 7.5 -12.9904 32
      vertex 10.037 -11.1472 30
    endloop
  endfacet
  facet normal 0.743145 -0.669131 0
    outer loop
      vertex 10.037 -11.1472 32
      vertex 10.037 -11.1472 30
      vertex 12.1353 -8.81678 30
    endloop
  endfacet
  facet normal 0.743145 -0.669131 0
    outer loop
      vertex 12.1353 -8.81678 32
      vertex 10.037 -11.1472 32
      vertex 12.1353 -8.81678 30
    endloop
  endfacet
  facet normal 0.866025 -0.5 0
    outer loop
      vertex 12.1353 -8.81678 32
      vertex 12.1353 -8.81678 30
      vertex 13.7032 -6.10105 30
    endloop
  endfacet
  facet normal 0.866025 -0.5 0
    outer loop
      vertex 13.7032 -6.10105 32
      vertex 12.1353 -8.81678 32
      vertex 13.7032 -6.10105 30
    endloop
  endfacet
  facet normal 0.951057 -0.309017 0
    outer loop
      vertex 13.7032 -6.10105 32
      vertex 13.7032 -6.10105 30
      vertex 14.6722 -3.11867 30
    endloop
  endfacet
  facet normal 0.951057 -0.309017 0
    outer loop
      vertex 14.6722 -3.11867 32
      vertex 13.7032 -6.10105 32
      vertex 14.6722 -3.11867 30
    endloop
  endfacet
  facet normal 0.994522 -0.104528 0
    outer loop
      vertex 14.6722 -3.11867 32
      vertex 14.6722 -3.11867 30
      vertex 15 0 30
    endloop
  endfacet
  facet normal 0.994522 -0.104528 0
    outer loop
      vertex 15 0 32
      vertex 14.6722 -3.11867 32
      vertex 15 0 30
    endloop
  endfacet
  facet normal 0.994522 0.104528 0
    outer loop
      vertex 15 0 30
      vertex 14.6722 3.11867 30
      vertex 14.6722 3.11867 32
    endloop
  endfacet
  facet normal 0.994522 0.104528 0
    outer loop
      vertex 15 0 32
      vertex 15 0 30
      vertex 14.6722 3.11867 32
    endloop
  endfacet
  facet normal 0.951057 0.309017 0
    outer loop
      vertex 14.6722 3.11867 30
      vertex 13.7032 6.10105 30
      vertex 13.7032 6.10105 32
    endloop
  endfacet
  facet normal 0.951057 0.309017 0
    outer loop
      vertex 14.6722 3.11867 32
      vertex 14.6722 3.11867 30
      vertex 13.7032 6.10105 32
    endloop
  endfacet
  facet normal 0.866025 0.5 0
    outer loop
      vertex 13.7032 6.10105 30
      vertex 12.1353 8.81678 30
      vertex 12.1353 8.81678 32
    endloop
  endfacet
  facet normal 0.866025 0.5 0
    outer loop
      vertex 13.7032 6.10105 32
      vertex 13.7032 6.10105 30
      vertex 12.1353 8.81678 32
    endloop
  endfacet
  facet normal 0.743145 0.669131 0
    outer loop
      vertex 12.1353 8.81678 30
      vertex 10.037 11.1472 30
      vertex 10.037 11.1472 32
    endloop
  endfacet
  facet normal 0.743145 0.669131 0
    outer loop
      vertex 12.1353 8.81678 32
      vertex 12.1353 8.81678 30
      vertex 10.037 11.1472 32
    endloop
  endfacet
  facet normal 0.587785 0.809017 0
    outer loop
      vertex 7.5 12.9904 30
      vertex 7.5 12.9904 32
      vertex 10.037 11.1472 30
    endloop
  endfacet
  facet normal 0.587785 0.809017 0
    outer loop
      vertex 10.037 11.1472 30
      vertex 7.5 12.9904 32
      vertex 10.037 11.1472 32
    endloop
  endfacet
  facet normal 0.406737 0.913545 0
    outer loop
      vertex 4.63525 14.2658 30
      vertex 4.63525 14.2658 32
      vertex 7.5 12.9904 30
    endloop
  endfacet
  facet normal 0.406737 0.913545 0
    outer loop
      vertex 7.5 12.9904 30
      vertex 4.63525 14.2658 32
      vertex 7.5 12.9904 32
    endloop
  endfacet
  facet normal 0.207911 0.978148 0
    outer loop
      vertex 1.56793 14.9178 30
      vertex 1.56793 14.9178 32
      vertex 4.63525 14.2658 30
    endloop
  endfacet
  facet normal 0.207911 0.978148 0
    outer loop
      vertex 4.63525 14.2658 30
      vertex 1.56793 14.9178 32
      vertex 4.63525 14.2658 32
    endloop
  endfacet
  facet normal 0 1 0
    outer loop
      vertex -1.56793 14.9178 30
      vertex -1.56793 14.9178 32
      vertex 1.56793 14.9178 30
    endloop
  endfacet
  facet normal 0 1 0
    outer loop
      vertex 1.56793 14.9178 30
      vertex -1.56793 14.9178 32
      vertex 1.56793 14.9178 32
    endloop
  endfacet
  facet normal -0.207911 0.978148 0
    outer loop
      vertex -4.63525 14.2658 30
      vertex -4.63525 14.2658 32
      vertex -1.56793 14.9178 30
    endloop
  endfacet
  facet normal -0.207911 0.978148 0
    outer loop
      vertex -1.56793 14.9178 30
      vertex -4.63525 14.2658 32
      vertex -1.56793 14.9178 32
    endloop
  endfacet
  facet normal -0.406737 0.913545 0
    outer loop
      vertex -7.5 12.9904 30
      vertex -7.5 12.9904 32
      vertex -4.63525 14.2658 30
    endloop
  endfacet
  facet normal -0.406737 0.913545 0
    outer loop
      vertex -4.63525 14.2658 30
      vertex -7.5 12.9904 32
      vertex -4.63525 14.2658 32
    endloop
  endfacet
  facet normal -0.587785 0.809017 0
    outer loop
      vertex -10.037 11.1472 30
      vertex -10.037 11.1472 32
      vertex -7.5 12.9904 30
    endloop
  endfacet
  facet normal -0.587785 0.809017 0
    outer loop
      vertex -7.5 12.9904 30
      vertex -10.037 11.1472 32
      vertex -7.5 12.9904 32
    endloop
  endfacet
  facet normal -0.743145 0.669131 0
    outer loop
      vertex -12.1353 8.81678 30
      vertex -12.1353 8.81678 32
      vertex -10.037 11.1472 30
    endloop
  endfacet
  facet normal -0.743145 0.669131 0
    outer loop
      vertex -10.037 11.1472 30
      vertex -12.1353 8.81678 32
      vertex -10.037 11.1472 32
    endloop
  endfacet
  facet normal 0 0 1
    outer loop
      vertex -14.6722 3.11867 32
      vertex -15 0 32
      vertex -14.6722 -3.11867 32
    endloop
  endfacet
  facet normal 0 0 1
    outer loop
      vertex -12.1353 -8.81678 32
      vertex -14.6722 3.11867 32
      vertex -13.7032 -6.10105 32
    endloop
  endfacet
  facet normal 0 0 1
    outer loop
      vertex -13.7032 -6.10105 32
      vertex -14.6722 3.11867 32
      vertex -14.6722 -3.11867 32
    endloop
  endfacet
  facet normal 0 0 1
    outer loop
      vertex -10.037 -11.1472 32
      vertex -14.6722 3.11867 32
      vertex -12.1353 -8.81678 32
    endloop
  endfacet
  facet normal 0 0 1
    outer loop
      vertex -7.5 -12.9904 32
      vertex -14.6722 3.11867 32
      vertex -10.037 -11.1472 32
    endloop
  endfacet
  facet normal 0 0 1
    outer loop
      vertex -4.63525 -14.2658 32
      vertex -14.6722 3.11867 32
      vertex -7.5 -12.9904 32
    endloop
  endfacet
  facet normal 0 0 1
    outer loop
      vertex -1.56793 -14.9178 32
      vertex -14.6722 3.11867 32
      vertex -4.63525 -14.2658 32
    endloop
  endfacet
  facet normal 0 0 1
    outer loop
      vertex 1.56793 -14.9178 32
      vertex -14.6722 3.11867 32
      vertex -1.56793 -14.9178 32
    endloop
  endfacet
  facet normal 0 0 1
    outer loop
      vertex 4.63525 -14.2658 32
      vertex -14.6722 3.11867 32
      vertex 1.56793 -14.9178 32
    endloop
  endfacet
  facet normal 0 0 1
    outer loop
      vertex 7.5 -12.9904 32
      vertex -14.6722 3.11867 32
      vertex 4.63525 -14.2658 32
    endloop
  endfacet
  facet normal 0 0 1
    outer loop
      vertex 10.037 -11.1472 32
      vertex -14.6722 3.11867 32
      vertex 7.5 -12.9904 32
    endloop
  endfacet
  facet normal 0 0 1
    outer loop
      vertex 12.1353 -8.81678 32
      vertex -14.6722 3.11867 32
      vertex 10.037 -11.1472 32
    endloop
  endfacet
  facet normal 0 0 1
    outer loop
      vertex 13.7032 -6.10105 32
      vertex -14.6722 3.11867 32
      vertex 12.1353 -8.81678 32
    endloop
  endfacet
  facet normal 0 0 1
    outer loop
      vertex 14.6722 -3.11867 32
      vertex -14.6722 3.11867 32
      vertex 13.7032 -6.10105 32
    endloop
  endfacet
  facet normal 0 0 1
    outer loop
      vertex 15 0 32
      vertex -14.6722 3.11867 32
      vertex 14.6722 -3.11867 32
    endloop
  endfacet
  facet normal 0 0 1
    outer loop
      vertex 14.6722 3.11867 32
      vertex -14.6722 3.11867 32
      vertex 15 0 32
    endloop
  endfacet
  facet normal 0 0 1
    outer loop
      vertex 13.7032 6.10105 32
      vertex -14.6722 3.11867 32
      vertex 14.6722 3.11867 32
    endloop
  endfacet
  facet normal 0 0 1
    outer loop
      vertex 12.1353 8.81678 32
      vertex -14.6722 3.11867 32
      vertex 13.7032 6.10105 32
    endloop
  endfacet
  facet normal 0 0 1
    outer loop
      vertex 10.037 11.1472 32
      vertex -14.6722 3.11867 32
      vertex 12.1353 8.81678 32
    endloop
  endfacet
  facet normal 0 0 1
    outer loop
      vertex 7.5 12.9904 32
      vertex -14.6722 3.11867 32
      vertex 10.037 11.1472 32
    endloop
  endfacet
  facet normal 0 0 1
    outer loop
      vertex 4.63525 14.2658 32
      vertex -14.6722 3.11867 32
      vertex 7.5 12.9904 32
    endloop
  endfacet
  facet normal 0 0 1
    outer loop
      vertex 1.56793 14.9178 32
      vertex -14.6722 3.11867 32
      vertex 4.63525 14.2658 32
    endloop
  endfacet
  facet normal 0 0 1
    outer loop
      vertex -1.56793 14.9178 32
      vertex -14.6722 3.11867 32
      vertex 1.56793 14.9178 32
    endloop
  endfacet
  facet normal 0 0 1
    outer loop
      vertex -4.63525 14.2658 32
      vertex -14.6722 3.11867 32
      vertex -1.56793 14.9178 32
    endloop
  endfacet
  facet normal 0 0 1
    outer loop
      vertex -7.5 12.9904 32
      vertex -14.6722 3.11867 32
      vertex -4.63525 14.2658 32
    endloop
  endfacet
  facet normal 0 0 1
    outer loop
      vertex -10.037 11.1472 32
      vertex -14.6722 3.11867 32
      vertex -7.5 12.9904 32
    endloop
  endfacet
  facet normal 0 0 1
    outer loop
      vertex -12.1353 8.81678 32
      vertex -14.6722 3.11867 32
      vertex -10.037 11.1472 32
    endloop
  endfacet
  facet normal 0 0 1
    outer loop
      vertex -13.7032 6.10105 32
      vertex -14.6722 3.11867 32
      vertex -12.1353 8.81678 32
    endloop
  endfacet
endsolid OpenSCAD_Model
